Coordinates
version=1
nRows=9
nColumns=42
inDegrees=yes

Units are S.I. units (second, meters, Newtons, ...)
If the header above contains a line with 'inDegrees', this indicates whether rotational values are in degrees (yes) or radians (no).

endheader
time	pelvis_tilt	pelvis_list	pelvis_rotation	pelvis_tx	pelvis_ty	pelvis_tz	hip_flexion_r	hip_adduction_r	hip_rotation_r	knee_angle_r	knee_adduction_r	knee_angle_r_beta	ankle_angle_r	subtalar_angle_r	mtp_angle_r	hip_flexion_l	hip_adduction_l	hip_rotation_l	knee_angle_l	knee_adduction_l	knee_angle_l_beta	ankle_angle_l	subtalar_angle_l	mtp_angle_l	lumbar_extension	lumbar_bending	lumbar_rotation	arm_flex_r	arm_add_r	arm_rot_r	elbow_flex_r	pro_sup_r	wrist_flex_r	wrist_dev_r	arm_flex_l	arm_add_l	arm_rot_l	elbow_flex_l	pro_sup_l	wrist_flex_l	wrist_dev_l
      0.40000000	     15.18821354	     -2.95997359	      1.80686876	     -2.13577811	      0.90583413	      0.07230094	    -27.08802646	      1.75344537	    -24.15857964	     11.08392716	      8.55669416	      0.19345102	     16.91609572	     37.12051704	     -9.43052174	     16.96718464	     -2.64465120	    -16.14678375	     19.77893359	     -7.84333776	      0.34520751	     14.39440003	     14.73367759	     -9.43052174	    -34.19342078	      2.01710042	      0.84455141	     21.65913821	    -23.68485994	      9.10050345	     63.75802850	     90.00000001	      0.00000000	      0.00000000	     -4.64256109	     -7.37610136	      2.29620433	     33.94857575	     90.00000001	      0.00000000	      0.00000000
      0.41000000	     15.12864729	     -3.08884710	      1.86814052	     -2.12713423	      0.90470265	      0.07110111	    -27.53268228	      1.74726257	    -23.91389840	     11.31415938	      8.52188874	      0.19746933	     16.91305062	     37.12151694	     -9.42445170	     16.99210412	     -2.59474380	    -16.25509701	     19.86080799	     -7.94489902	      0.34663649	     14.45998274	     14.66490849	     -9.42445170	    -34.07792488	      2.18208598	      0.78890761	     21.91287532	    -23.75225083	      9.01531415	     63.91058939	     90.00000001	      0.00000000	      0.00000000	     -4.87784552	     -7.38119689	      2.33561010	     33.78120657	     90.00000001	      0.00000000	      0.00000000
      0.42000000	     15.18427313	     -3.15217509	      1.83724222	     -2.11851405	      0.90381488	      0.06992380	    -28.06395030	      1.60716732	    -23.58077991	     11.61456797	      8.49452897	      0.20271245	     16.95163660	     37.17389270	     -9.41402662	     16.87325631	     -2.47640624	    -16.40493925	     20.40125094	     -8.14856895	      0.35606900	     14.72791346	     14.44377413	     -9.41402662	    -34.13968492	      2.23430201	      0.76482946	     22.17262179	    -23.84525293	      8.95465674	     64.10471150	     90.00000001	      0.00000000	      0.00000000	     -5.05222684	     -7.40603495	      2.53172208	     33.30463157	     90.00000001	      0.00000000	      0.00000000
      0.43000000	     15.18137295	     -3.16654412	      1.73729376	     -2.10960401	      0.90289894	      0.06879925	    -28.52884866	      1.38749412	    -23.29523073	     11.95672712	      8.43167844	      0.20868426	     17.00063084	     37.19267108	     -9.40060295	     16.75398127	     -2.34752297	    -16.54547185	     21.29250736	     -8.26689426	      0.37162436	     15.14634688	     14.00721690	     -9.40060295	    -34.10594470	      2.19149706	      0.81259776	     22.25910530	    -23.92227651	      8.88675296	     64.22199932	     90.00000001	      0.00000000	      0.00000000	     -5.21492838	     -7.38848925	      2.90893407	     32.58594480	     90.00000001	      0.00000000	      0.00000000
      0.44000000	     15.06593257	     -3.22948027	      1.59160637	     -2.10053986	      0.90177891	      0.06770619	    -28.83573350	      1.16948795	    -23.09661477	     12.42621137	      8.37431265	      0.21687830	     17.10649153	     37.21559190	     -9.37954835	     16.76931241	     -2.32558713	    -16.75579890	     22.58653299	     -8.32031397	      0.39420937	     15.83404108	     13.09090311	     -9.37954835	    -33.92123972	      2.17656604	      0.95883921	     22.22230096	    -23.99736220	      8.70263619	     64.30164146	     90.00000001	      0.00000000	      0.00000000	     -5.25969236	     -7.39453603	      3.52627681	     31.69048107	     90.00000001	      0.00000000	      0.00000000
      0.45000000	     14.87932623	     -3.33964521	      1.43350413	     -2.09145053	      0.90059965	      0.06676376	    -28.99786180	      1.04252178	    -22.96001545	     12.98090278	      8.16103470	      0.22655949	     17.20930698	     37.35204774	     -9.35765484	     16.76802115	     -2.34358073	    -16.70071989	     23.92838169	     -8.31249434	      0.41762905	     16.43910543	     11.97604108	     -9.35765484	    -33.68129324	      2.17912084	      1.15866867	     22.06676381	    -24.03794585	      8.38573865	     64.34417500	     90.00000001	      0.00000000	      0.00000000	     -5.28107926	     -7.55183025	      4.03440045	     31.19173061	     90.00000001	      0.00000000	      0.00000000
      0.46000000	     14.72793193	     -3.33509350	      1.30893428	     -2.08219188	      0.89975596	      0.06554164	    -29.25588665	      0.88824149	    -22.63311140	     13.31256205	      7.82907066	      0.23234804	     17.15253485	     37.41471771	     -9.35326613	     16.40846507	     -2.06055825	    -16.36135900	     24.61479149	     -8.42017690	      0.42960916	     16.49881635	     11.80027665	     -9.35326613	    -33.47027615	      2.10024761	      1.26527194	     21.86028469	    -24.03603608	      8.31631133	     64.25235905	     90.00000001	      0.00000000	      0.00000000	     -5.26614648	     -7.64019738	      4.05275786	     31.17675648	     90.00000001	      0.00000000	      0.00000000
      0.47000000	     14.46827934	     -3.33033702	      1.21487893	     -2.07326240	      0.89867161	      0.06419840	    -29.22386398	      0.61436816	    -22.88201016	     14.19689499	      7.57858164	      0.24778256	     17.40055530	     37.61758151	     -9.21712257	     16.28299153	     -1.85948909	    -15.12075278	     26.00721926	     -7.78180789	      0.45391161	     16.67040828	      7.53212774	     -9.21712257	    -33.20728463	      2.05035821	      1.41016752	     21.58523106	    -23.92937728	      7.67898706	     64.22220560	     90.00000001	      0.00000000	      0.00000000	     -5.04478019	     -7.83389329	      4.01232349	     31.39013305	     90.00000001	      0.00000000	      0.00000000
      0.48000000	     14.27505715	     -3.28181683	      0.98469750	     -2.06388891	      0.89784159	      0.06302610	    -29.34297129	      0.26787934	    -22.67471082	     14.83988045	      7.39389331	      0.25900477	     17.32791372	     37.59534222	     -9.20052174	     16.01168075	     -1.71474897	    -15.28219537	     26.99673045	     -7.70193237	      0.47118183	     17.04524800	      6.87139212	     -9.20052174	    -32.97158737	      1.88336836	      1.60054840	     21.26162151	    -23.85339306	      7.34933698	     64.03285882	     90.00000001	      0.00000000	      0.00000000	     -4.83958874	     -8.02187607	      3.59654586	     31.82437469	     90.00000001	      0.00000000	      0.00000000
